<?xml version="1.0" standalone="no"?><!DOCTYPE svg PUBLIC "-//W3C//DTD SVG 1.1//EN" "http://www.w3.org/Graphics/SVG/1.1/DTD/svg11.dtd"><svg t="1531711024864" class="icon" style="" viewBox="0 0 1024 1024" version="1.1" xmlns="http://www.w3.org/2000/svg" p-id="8448" xmlns:xlink="http://www.w3.org/1999/xlink" width="200" height="200"><defs><style type="text/css"></style></defs><path d="M814.004265 64.021106 209.408357 64.021106c-80.317257 0-145.426137 65.109903-145.426137 145.426137L63.98222 814.043151c0 80.317257 65.109903 145.426137 145.426137 145.426137l604.595908 0c80.317257 0 145.426137-65.109903 145.426137-145.426137L959.430402 209.447243C959.430402 129.131009 894.320499 64.021106 814.004265 64.021106zM796.663318 892.931872 226.749304 892.931872c-54.56985 0-98.806353-44.237527-98.806353-98.806353L127.942951 226.14146c0-54.56985 44.237527-98.806353 98.806353-98.806353l569.914014 0c54.56985 0 98.806353 44.237527 98.806353 98.806353l0 567.983036C895.469672 848.694345 851.232145 892.931872 796.663318 892.931872z" p-id="8449" fill="#ffffff"></path><path d="M255.863389 255.903298l63.960731 0 0 63.960731-63.960731 0 0-63.960731Z" p-id="8450" fill="#ffffff"></path><path d="M383.78485 255.903298l383.764384 0 0 63.960731-383.764384 0 0-63.960731Z" p-id="8451" fill="#ffffff"></path><path d="M255.863389 703.627389l63.960731 0 0 63.960731-63.960731 0 0-63.960731Z" p-id="8452" fill="#ffffff"></path><path d="M383.78485 703.627389l383.764384 0 0 63.960731-383.764384 0 0-63.960731Z" p-id="8453" fill="#ffffff"></path><path d="M255.863389 479.764831l63.960731 0 0 63.960731-63.960731 0 0-63.960731Z" p-id="8454" fill="#ffffff"></path><path d="M383.78485 479.764831l383.764384 0 0 63.960731-383.764384 0 0-63.960731Z" p-id="8455" fill="#ffffff"></path></svg>